REM DIRINDEX 1\2,1\3,1\4,1\5
REM DIRNAME "folder01","folder02","folder03","folder04","folder05"
TITLE ""
FILE "P1Q_t_0739-0748.mp3" MP3
  TRACK 01 AUDIO
    TITLE "3:cjc173_3158"
    INDEX 01 00:00:00
  TRACK 02 AUDIO
    TITLE "0:"
    INDEX 01 00:00:71
  TRACK 03 AUDIO
    TITLE "4:cjc173_3159"
    INDEX 01 00:01:23
  TRACK 04 AUDIO
    TITLE "0:"
    INDEX 01 00:04:28
  TRACK 05 AUDIO
    TITLE "5:cjc173_3160"
    INDEX 01 00:04:47
  TRACK 06 AUDIO
    TITLE "0:"
    INDEX 01 00:08:06
  TRACK 07 AUDIO
    TITLE "3:cjc173_3161"
    INDEX 01 00:08:53
  TRACK 08 AUDIO
    TITLE "0:"
    INDEX 01 00:09:72
  TRACK 09 AUDIO
    TITLE "4:cjc173_3162"
    INDEX 01 00:10:19
  TRACK 10 AUDIO
    TITLE "0:"
    INDEX 01 00:13:29
  TRACK 11 AUDIO
    TITLE "5:cjc173_3163"
    INDEX 01 00:13:48
  TRACK 12 AUDIO
    TITLE "0:"
    INDEX 01 00:18:12
  TRACK 13 AUDIO
    TITLE "3:cjc173_3164"
    INDEX 01 00:18:59
  TRACK 14 AUDIO
    TITLE "0:"
    INDEX 01 00:20:15
  TRACK 15 AUDIO
    TITLE "4:cjc173_3165"
    INDEX 01 00:20:38
  TRACK 16 AUDIO
    TITLE "0:"
    INDEX 01 00:22:61
  TRACK 17 AUDIO
    TITLE "5:cjc173_3166"
    INDEX 01 00:23:05
  TRACK 18 AUDIO
    TITLE "0:"
    INDEX 01 00:28:13
  TRACK 19 AUDIO
    TITLE "3:cjc173_3167"
    INDEX 01 00:28:60
  TRACK 20 AUDIO
    TITLE "0:"
    INDEX 01 00:29:63
  TRACK 21 AUDIO
    TITLE "4:cjc173_3168"
    INDEX 01 00:30:09
  TRACK 22 AUDIO
    TITLE "0:"
    INDEX 01 00:33:02
  TRACK 23 AUDIO
    TITLE "5:cjc173_3169"
    INDEX 01 00:33:22
  TRACK 24 AUDIO
    TITLE "0:"
    INDEX 01 00:37:29
  TRACK 25 AUDIO
    TITLE "3:cjc173_3170"
    INDEX 01 00:38:01
  TRACK 26 AUDIO
    TITLE "0:"
    INDEX 01 00:39:18
  TRACK 27 AUDIO
    TITLE "4:cjc173_3171"
    INDEX 01 00:39:40
  TRACK 28 AUDIO
    TITLE "0:"
    INDEX 01 00:41:62
  TRACK 29 AUDIO
    TITLE "5:cjc173_3172"
    INDEX 01 00:42:05
  TRACK 30 AUDIO
    TITLE "0:"
    INDEX 01 00:45:58
  TRACK 31 AUDIO
    TITLE "3:cjc173_3173"
    INDEX 01 00:46:28
  TRACK 32 AUDIO
    TITLE "0:"
    INDEX 01 00:47:49
  TRACK 33 AUDIO
    TITLE "4:cjc173_3174"
    INDEX 01 00:47:69
  TRACK 34 AUDIO
    TITLE "0:"
    INDEX 01 00:50:38
  TRACK 35 AUDIO
    TITLE "5:cjc173_3175"
    INDEX 01 00:50:57
  TRACK 36 AUDIO
    TITLE "0:"
    INDEX 01 00:54:73
  TRACK 37 AUDIO
    TITLE "3:cjc173_3176"
    INDEX 01 00:55:45
  TRACK 38 AUDIO
    TITLE "0:"
    INDEX 01 00:56:64
  TRACK 39 AUDIO
    TITLE "4:cjc173_3177"
    INDEX 01 00:57:08
  TRACK 40 AUDIO
    TITLE "0:"
    INDEX 01 01:01:20
  TRACK 41 AUDIO
    TITLE "5:cjc173_3178"
    INDEX 01 01:01:39
  TRACK 42 AUDIO
    TITLE "0:"
    INDEX 01 01:06:58
  TRACK 43 AUDIO
    TITLE "3:cjc173_3179"
    INDEX 01 01:07:28
  TRACK 44 AUDIO
    TITLE "0:"
    INDEX 01 01:08:39
  TRACK 45 AUDIO
    TITLE "4:cjc173_3180"
    INDEX 01 01:08:61
  TRACK 46 AUDIO
    TITLE "0:"
    INDEX 01 01:09:60
  TRACK 47 AUDIO
    TITLE "5:cjc173_3181"
    INDEX 01 01:10:07
  TRACK 48 AUDIO
    TITLE "0:"
    INDEX 01 01:14:05
  TRACK 49 AUDIO
    TITLE "3:cjc173_3182"
    INDEX 01 01:14:52
  TRACK 50 AUDIO
    TITLE "0:"
    INDEX 01 01:15:67
  TRACK 51 AUDIO
    TITLE "4:cjc173_3183"
    INDEX 01 01:16:12
  TRACK 52 AUDIO
    TITLE "0:"
    INDEX 01 01:17:07
  TRACK 53 AUDIO
    TITLE "5:cjc173_3184"
    INDEX 01 01:17:29
  TRACK 54 AUDIO
    TITLE "0:"
    INDEX 01 01:21:24
  TRACK 55 AUDIO
    TITLE "3:cjc173_3185"
    INDEX 01 01:21:71
  TRACK 56 AUDIO
    TITLE "0:"
    INDEX 01 01:23:17
  TRACK 57 AUDIO
    TITLE "4:cjc173_3186"
    INDEX 01 01:23:37
  TRACK 58 AUDIO
    TITLE "0:"
    INDEX 01 01:25:50
  TRACK 59 AUDIO
    TITLE "5:cjc173_3187"
    INDEX 01 01:25:69
  TRACK 60 AUDIO
    TITLE "0:"
    INDEX 01 01:30:45
